<mxfile host="app.diagrams.net" modified="2023-10-06T08:23:11.175Z" agent="Mozilla/5.0 (Windows NT 10.0; Win64; x64) AppleWebKit/537.36 (KHTML, like Gecko) Chrome/117.0.0.0 Safari/537.36" etag="pqhfDiZ5jaXyYfgP44QC" version="22.0.0" type="github">
  <diagram name="Страница — 1" id="YEYx_S7np20xCLuWIb5I">
    <mxGraphModel dx="1134" dy="719" grid="1" gridSize="10" guides="1" tooltips="1" connect="1" arrows="1" fold="1" page="1" pageScale="1" pageWidth="1169" pageHeight="827" math="0" shadow="0">
      <root>
        <mxCell id="0" />
        <mxCell id="1" parent="0" />
        <mxCell id="KCzzuOQfdrju5-R5w8kE-4" value="" style="group" vertex="1" connectable="0" parent="1">
          <mxGeometry x="307" y="180" width="150" height="80" as="geometry" />
        </mxCell>
        <mxCell id="KCzzuOQfdrju5-R5w8kE-1" value="&lt;font style=&quot;font-size: 16px;&quot;&gt;Обработка запроса&lt;/font&gt;" style="rounded=0;whiteSpace=wrap;html=1;align=center;" vertex="1" parent="KCzzuOQfdrju5-R5w8kE-4">
          <mxGeometry y="-10" width="150" height="60" as="geometry" />
        </mxCell>
        <mxCell id="KCzzuOQfdrju5-R5w8kE-2" value="&lt;font style=&quot;font-size: 16px;&quot;&gt;2&lt;/font&gt;" style="rounded=0;whiteSpace=wrap;html=1;align=left;" vertex="1" parent="KCzzuOQfdrju5-R5w8kE-4">
          <mxGeometry y="50" width="75" height="30" as="geometry" />
        </mxCell>
        <mxCell id="KCzzuOQfdrju5-R5w8kE-3" value="" style="rounded=0;whiteSpace=wrap;html=1;" vertex="1" parent="KCzzuOQfdrju5-R5w8kE-4">
          <mxGeometry x="75" y="50" width="75" height="30" as="geometry" />
        </mxCell>
        <mxCell id="KCzzuOQfdrju5-R5w8kE-7" value="" style="group" vertex="1" connectable="0" parent="1">
          <mxGeometry x="530" y="900" width="230" height="160" as="geometry" />
        </mxCell>
        <mxCell id="KCzzuOQfdrju5-R5w8kE-5" value="" style="rounded=0;whiteSpace=wrap;html=1;" vertex="1" parent="KCzzuOQfdrju5-R5w8kE-7">
          <mxGeometry width="230" height="160" as="geometry" />
        </mxCell>
        <mxCell id="KCzzuOQfdrju5-R5w8kE-6" value="" style="rounded=0;whiteSpace=wrap;html=1;" vertex="1" parent="KCzzuOQfdrju5-R5w8kE-7">
          <mxGeometry y="100" width="230" height="60" as="geometry" />
        </mxCell>
        <mxCell id="KCzzuOQfdrju5-R5w8kE-10" value="" style="group" vertex="1" connectable="0" parent="1">
          <mxGeometry x="530" y="340" width="56" height="40" as="geometry" />
        </mxCell>
        <mxCell id="KCzzuOQfdrju5-R5w8kE-39" style="edgeStyle=orthogonalEdgeStyle;rounded=0;orthogonalLoop=1;jettySize=auto;html=1;" edge="1" parent="KCzzuOQfdrju5-R5w8kE-10" source="KCzzuOQfdrju5-R5w8kE-8">
          <mxGeometry relative="1" as="geometry">
            <mxPoint x="150" y="20" as="targetPoint" />
          </mxGeometry>
        </mxCell>
        <mxCell id="KCzzuOQfdrju5-R5w8kE-8" value="&lt;font style=&quot;font-size: 20px;&quot;&gt;&amp;nbsp;&amp;amp;&lt;/font&gt;" style="rounded=0;whiteSpace=wrap;html=1;" vertex="1" parent="KCzzuOQfdrju5-R5w8kE-10">
          <mxGeometry width="56" height="40" as="geometry" />
        </mxCell>
        <mxCell id="KCzzuOQfdrju5-R5w8kE-9" value="" style="rounded=0;whiteSpace=wrap;html=1;" vertex="1" parent="KCzzuOQfdrju5-R5w8kE-10">
          <mxGeometry width="16" height="40" as="geometry" />
        </mxCell>
        <mxCell id="KCzzuOQfdrju5-R5w8kE-15" value="" style="group" vertex="1" connectable="0" parent="1">
          <mxGeometry x="307" y="300" width="150" height="110" as="geometry" />
        </mxCell>
        <mxCell id="KCzzuOQfdrju5-R5w8kE-16" value="&lt;font style=&quot;font-size: 17px;&quot;&gt;Отправка запроса на склад&lt;/font&gt;" style="rounded=0;whiteSpace=wrap;html=1;" vertex="1" parent="KCzzuOQfdrju5-R5w8kE-15">
          <mxGeometry y="10" width="150" height="67" as="geometry" />
        </mxCell>
        <mxCell id="KCzzuOQfdrju5-R5w8kE-17" value="&lt;font style=&quot;font-size: 16px;&quot;&gt;3&lt;/font&gt;" style="rounded=0;whiteSpace=wrap;html=1;align=left;" vertex="1" parent="KCzzuOQfdrju5-R5w8kE-15">
          <mxGeometry y="68.75" width="75" height="41.25" as="geometry" />
        </mxCell>
        <mxCell id="KCzzuOQfdrju5-R5w8kE-18" value="" style="rounded=0;whiteSpace=wrap;html=1;" vertex="1" parent="KCzzuOQfdrju5-R5w8kE-15">
          <mxGeometry x="75" y="68.75" width="75" height="41.25" as="geometry" />
        </mxCell>
        <mxCell id="KCzzuOQfdrju5-R5w8kE-19" value="" style="group" vertex="1" connectable="0" parent="1">
          <mxGeometry x="307" y="450" width="150" height="100" as="geometry" />
        </mxCell>
        <mxCell id="KCzzuOQfdrju5-R5w8kE-20" value="&lt;font style=&quot;font-size: 16px;&quot;&gt;Выдача со склада&lt;/font&gt;" style="rounded=0;whiteSpace=wrap;html=1;" vertex="1" parent="KCzzuOQfdrju5-R5w8kE-19">
          <mxGeometry width="150" height="70" as="geometry" />
        </mxCell>
        <mxCell id="KCzzuOQfdrju5-R5w8kE-21" value="&lt;font style=&quot;font-size: 16px;&quot;&gt;4&lt;/font&gt;" style="rounded=0;whiteSpace=wrap;html=1;align=left;" vertex="1" parent="KCzzuOQfdrju5-R5w8kE-19">
          <mxGeometry y="62.5" width="75" height="37.5" as="geometry" />
        </mxCell>
        <mxCell id="KCzzuOQfdrju5-R5w8kE-22" value="" style="rounded=0;whiteSpace=wrap;html=1;" vertex="1" parent="KCzzuOQfdrju5-R5w8kE-19">
          <mxGeometry x="75" y="62.5" width="75" height="37.5" as="geometry" />
        </mxCell>
        <mxCell id="KCzzuOQfdrju5-R5w8kE-23" style="edgeStyle=orthogonalEdgeStyle;rounded=0;orthogonalLoop=1;jettySize=auto;html=1;entryX=0.5;entryY=0;entryDx=0;entryDy=0;" edge="1" parent="1" source="KCzzuOQfdrju5-R5w8kE-1" target="KCzzuOQfdrju5-R5w8kE-8">
          <mxGeometry relative="1" as="geometry" />
        </mxCell>
        <mxCell id="KCzzuOQfdrju5-R5w8kE-24" style="edgeStyle=orthogonalEdgeStyle;rounded=0;orthogonalLoop=1;jettySize=auto;html=1;entryX=0;entryY=0.5;entryDx=0;entryDy=0;" edge="1" parent="1" source="KCzzuOQfdrju5-R5w8kE-16" target="KCzzuOQfdrju5-R5w8kE-9">
          <mxGeometry relative="1" as="geometry">
            <Array as="points">
              <mxPoint x="500" y="360" />
              <mxPoint x="500" y="360" />
            </Array>
          </mxGeometry>
        </mxCell>
        <mxCell id="KCzzuOQfdrju5-R5w8kE-27" value="" style="group" vertex="1" connectable="0" parent="1">
          <mxGeometry x="677" y="310" width="150" height="100" as="geometry" />
        </mxCell>
        <mxCell id="KCzzuOQfdrju5-R5w8kE-28" value="&lt;font style=&quot;font-size: 17px;&quot;&gt;Проданные книги&lt;/font&gt;" style="rounded=0;whiteSpace=wrap;html=1;" vertex="1" parent="KCzzuOQfdrju5-R5w8kE-27">
          <mxGeometry width="150" height="62.5" as="geometry" />
        </mxCell>
        <mxCell id="KCzzuOQfdrju5-R5w8kE-29" value="&lt;font style=&quot;font-size: 16px;&quot;&gt;5&lt;/font&gt;" style="rounded=0;whiteSpace=wrap;html=1;align=left;" vertex="1" parent="KCzzuOQfdrju5-R5w8kE-27">
          <mxGeometry y="62.5" width="75" height="37.5" as="geometry" />
        </mxCell>
        <mxCell id="KCzzuOQfdrju5-R5w8kE-30" value="" style="rounded=0;whiteSpace=wrap;html=1;" vertex="1" parent="KCzzuOQfdrju5-R5w8kE-27">
          <mxGeometry x="75" y="62.5" width="75" height="37.5" as="geometry" />
        </mxCell>
        <mxCell id="KCzzuOQfdrju5-R5w8kE-25" style="edgeStyle=orthogonalEdgeStyle;rounded=0;orthogonalLoop=1;jettySize=auto;html=1;entryX=0.5;entryY=1;entryDx=0;entryDy=0;" edge="1" parent="1" source="KCzzuOQfdrju5-R5w8kE-20" target="KCzzuOQfdrju5-R5w8kE-8">
          <mxGeometry relative="1" as="geometry">
            <mxPoint x="557" y="370" as="targetPoint" />
          </mxGeometry>
        </mxCell>
        <mxCell id="KCzzuOQfdrju5-R5w8kE-36" value="" style="group" vertex="1" connectable="0" parent="1">
          <mxGeometry x="190" y="340" width="56" height="40" as="geometry" />
        </mxCell>
        <mxCell id="KCzzuOQfdrju5-R5w8kE-37" value="&lt;font style=&quot;font-size: 20px;&quot;&gt;&amp;nbsp;&amp;amp;&lt;/font&gt;" style="rounded=0;whiteSpace=wrap;html=1;" vertex="1" parent="KCzzuOQfdrju5-R5w8kE-36">
          <mxGeometry width="56" height="40" as="geometry" />
        </mxCell>
        <mxCell id="KCzzuOQfdrju5-R5w8kE-38" value="" style="rounded=0;whiteSpace=wrap;html=1;" vertex="1" parent="KCzzuOQfdrju5-R5w8kE-36">
          <mxGeometry width="16" height="40" as="geometry" />
        </mxCell>
        <mxCell id="KCzzuOQfdrju5-R5w8kE-40" style="edgeStyle=orthogonalEdgeStyle;rounded=0;orthogonalLoop=1;jettySize=auto;html=1;entryX=0;entryY=0.75;entryDx=0;entryDy=0;" edge="1" parent="1" source="KCzzuOQfdrju5-R5w8kE-37" target="KCzzuOQfdrju5-R5w8kE-1">
          <mxGeometry relative="1" as="geometry" />
        </mxCell>
        <mxCell id="KCzzuOQfdrju5-R5w8kE-41" style="edgeStyle=orthogonalEdgeStyle;rounded=0;orthogonalLoop=1;jettySize=auto;html=1;entryX=0;entryY=0.75;entryDx=0;entryDy=0;" edge="1" parent="1" source="KCzzuOQfdrju5-R5w8kE-37" target="KCzzuOQfdrju5-R5w8kE-16">
          <mxGeometry relative="1" as="geometry" />
        </mxCell>
        <mxCell id="KCzzuOQfdrju5-R5w8kE-43" style="edgeStyle=orthogonalEdgeStyle;rounded=0;orthogonalLoop=1;jettySize=auto;html=1;entryX=1;entryY=0.5;entryDx=0;entryDy=0;endArrow=none;endFill=0;startArrow=classic;startFill=1;" edge="1" parent="1" source="KCzzuOQfdrju5-R5w8kE-20" target="KCzzuOQfdrju5-R5w8kE-37">
          <mxGeometry relative="1" as="geometry" />
        </mxCell>
        <mxCell id="KCzzuOQfdrju5-R5w8kE-44" style="edgeStyle=orthogonalEdgeStyle;rounded=0;orthogonalLoop=1;jettySize=auto;html=1;entryX=0;entryY=0.5;entryDx=0;entryDy=0;" edge="1" parent="1" target="KCzzuOQfdrju5-R5w8kE-38">
          <mxGeometry relative="1" as="geometry">
            <mxPoint x="150" y="360.0526315789474" as="sourcePoint" />
            <Array as="points">
              <mxPoint x="160" y="360" />
              <mxPoint x="160" y="360" />
            </Array>
          </mxGeometry>
        </mxCell>
        <mxCell id="KCzzuOQfdrju5-R5w8kE-45" value="" style="group" vertex="1" connectable="0" parent="1">
          <mxGeometry y="310" width="150" height="100" as="geometry" />
        </mxCell>
        <mxCell id="KCzzuOQfdrju5-R5w8kE-46" value="&lt;font style=&quot;font-size: 17px;&quot;&gt;Заказ&lt;/font&gt;" style="rounded=0;whiteSpace=wrap;html=1;" vertex="1" parent="KCzzuOQfdrju5-R5w8kE-45">
          <mxGeometry width="150" height="62.5" as="geometry" />
        </mxCell>
        <mxCell id="KCzzuOQfdrju5-R5w8kE-47" value="&lt;font style=&quot;font-size: 16px;&quot;&gt;1&lt;/font&gt;" style="rounded=0;whiteSpace=wrap;html=1;align=left;" vertex="1" parent="KCzzuOQfdrju5-R5w8kE-45">
          <mxGeometry y="62.5" width="75" height="37.5" as="geometry" />
        </mxCell>
        <mxCell id="KCzzuOQfdrju5-R5w8kE-48" value="" style="rounded=0;whiteSpace=wrap;html=1;" vertex="1" parent="KCzzuOQfdrju5-R5w8kE-45">
          <mxGeometry x="75" y="62.5" width="75" height="37.5" as="geometry" />
        </mxCell>
      </root>
    </mxGraphModel>
  </diagram>
</mxfile>
